<mxfile host="app.diagrams.net" modified="2024-06-08T19:34:09.379Z" agent="Mozilla/5.0 (Windows NT 10.0; Win64; x64) AppleWebKit/537.36 (KHTML, like Gecko) Chrome/125.0.0.0 Safari/537.36" etag="CROQRptSMkD_DWADuGG5" version="24.4.14" type="device">
  <diagram name="Trang-1" id="1iPSetiMdpf9adHIg9xG">
    <mxGraphModel dx="4200" dy="3397" grid="1" gridSize="10" guides="1" tooltips="1" connect="1" arrows="1" fold="1" page="1" pageScale="1" pageWidth="827" pageHeight="1169" math="0" shadow="0">
      <root>
        <mxCell id="0" />
        <mxCell id="1" parent="0" />
        <mxCell id="kLgQOa51LK79dz60UhgS-129" value="" style="rounded=0;whiteSpace=wrap;html=1;" vertex="1" parent="1">
          <mxGeometry x="1240" y="-430" width="1470" height="1930" as="geometry" />
        </mxCell>
        <mxCell id="6Y1sCY7NxczDT4jlOH8O-1" value="Người dùng" style="shape=umlActor;verticalLabelPosition=bottom;verticalAlign=top;html=1;outlineConnect=0;" parent="1" vertex="1">
          <mxGeometry x="250" y="190" width="30" height="60" as="geometry" />
        </mxCell>
        <mxCell id="W9WCHTceWzW7yV-oWagZ-1" value="Đăng nhập" style="ellipse;whiteSpace=wrap;html=1;" parent="1" vertex="1">
          <mxGeometry x="360" y="430" width="120" height="80" as="geometry" />
        </mxCell>
        <mxCell id="W9WCHTceWzW7yV-oWagZ-2" value="Đăng ký" style="ellipse;whiteSpace=wrap;html=1;" parent="1" vertex="1">
          <mxGeometry x="630" y="430" width="120" height="80" as="geometry" />
        </mxCell>
        <mxCell id="W9WCHTceWzW7yV-oWagZ-3" value="" style="endArrow=classic;html=1;rounded=0;entryX=0;entryY=0.5;entryDx=0;entryDy=0;" parent="1" target="W9WCHTceWzW7yV-oWagZ-1" edge="1">
          <mxGeometry width="50" height="50" relative="1" as="geometry">
            <mxPoint x="290" y="220" as="sourcePoint" />
            <mxPoint x="420" y="230" as="targetPoint" />
          </mxGeometry>
        </mxCell>
        <mxCell id="W9WCHTceWzW7yV-oWagZ-4" value="Chủ khách sạn" style="shape=umlActor;verticalLabelPosition=bottom;verticalAlign=top;html=1;outlineConnect=0;" parent="1" vertex="1">
          <mxGeometry x="250" y="20" width="30" height="60" as="geometry" />
        </mxCell>
        <mxCell id="W9WCHTceWzW7yV-oWagZ-5" value="" style="endArrow=block;html=1;rounded=0;endFill=0;" parent="1" edge="1">
          <mxGeometry width="50" height="50" relative="1" as="geometry">
            <mxPoint x="264.5" y="120" as="sourcePoint" />
            <mxPoint x="264.5" y="180" as="targetPoint" />
          </mxGeometry>
        </mxCell>
        <mxCell id="W9WCHTceWzW7yV-oWagZ-6" value="Admin" style="shape=umlActor;verticalLabelPosition=bottom;verticalAlign=top;html=1;outlineConnect=0;" parent="1" vertex="1">
          <mxGeometry x="250" y="-150" width="30" height="60" as="geometry" />
        </mxCell>
        <mxCell id="W9WCHTceWzW7yV-oWagZ-7" value="" style="endArrow=block;html=1;rounded=0;endFill=0;" parent="1" edge="1">
          <mxGeometry width="50" height="50" relative="1" as="geometry">
            <mxPoint x="264.5" y="-50" as="sourcePoint" />
            <mxPoint x="264.5" y="10" as="targetPoint" />
          </mxGeometry>
        </mxCell>
        <mxCell id="W9WCHTceWzW7yV-oWagZ-9" value="" style="endArrow=classic;startArrow=classic;html=1;rounded=0;exitX=1;exitY=0.5;exitDx=0;exitDy=0;dashed=1;" parent="1" source="W9WCHTceWzW7yV-oWagZ-1" target="W9WCHTceWzW7yV-oWagZ-2" edge="1">
          <mxGeometry width="50" height="50" relative="1" as="geometry">
            <mxPoint x="500" y="380" as="sourcePoint" />
            <mxPoint x="550" y="330" as="targetPoint" />
          </mxGeometry>
        </mxCell>
        <mxCell id="W9WCHTceWzW7yV-oWagZ-10" value="&lt;font style=&quot;font-size: 14px;&quot;&gt;&amp;lt;&amp;lt;Extend&amp;gt;&amp;gt;&lt;/font&gt;" style="edgeLabel;html=1;align=center;verticalAlign=middle;resizable=0;points=[];" parent="W9WCHTceWzW7yV-oWagZ-9" vertex="1" connectable="0">
          <mxGeometry x="-0.02" relative="1" as="geometry">
            <mxPoint as="offset" />
          </mxGeometry>
        </mxCell>
        <mxCell id="W9WCHTceWzW7yV-oWagZ-11" value="Tìm khách sạn" style="ellipse;whiteSpace=wrap;html=1;" parent="1" vertex="1">
          <mxGeometry x="360" y="310" width="120" height="80" as="geometry" />
        </mxCell>
        <mxCell id="W9WCHTceWzW7yV-oWagZ-12" value="Trang giới thiệu khách sạn và danh sách phòng" style="ellipse;whiteSpace=wrap;html=1;" parent="1" vertex="1">
          <mxGeometry x="900" y="310" width="120" height="80" as="geometry" />
        </mxCell>
        <mxCell id="W9WCHTceWzW7yV-oWagZ-13" value="Thông tin phòng và đặt phòng" style="ellipse;whiteSpace=wrap;html=1;" parent="1" vertex="1">
          <mxGeometry x="900" y="190" width="120" height="80" as="geometry" />
        </mxCell>
        <mxCell id="W9WCHTceWzW7yV-oWagZ-14" value="Danh sách phòng để đặt phòng" style="ellipse;whiteSpace=wrap;html=1;" parent="1" vertex="1">
          <mxGeometry x="360" y="190" width="120" height="80" as="geometry" />
        </mxCell>
        <mxCell id="W9WCHTceWzW7yV-oWagZ-15" value="" style="endArrow=classic;html=1;rounded=0;entryX=0;entryY=0.5;entryDx=0;entryDy=0;" parent="1" target="W9WCHTceWzW7yV-oWagZ-11" edge="1">
          <mxGeometry width="50" height="50" relative="1" as="geometry">
            <mxPoint x="290" y="220" as="sourcePoint" />
            <mxPoint x="340" y="200" as="targetPoint" />
          </mxGeometry>
        </mxCell>
        <mxCell id="W9WCHTceWzW7yV-oWagZ-16" value="" style="endArrow=classic;html=1;rounded=0;entryX=0;entryY=0.5;entryDx=0;entryDy=0;" parent="1" target="W9WCHTceWzW7yV-oWagZ-14" edge="1">
          <mxGeometry width="50" height="50" relative="1" as="geometry">
            <mxPoint x="290" y="220" as="sourcePoint" />
            <mxPoint x="380" y="230" as="targetPoint" />
          </mxGeometry>
        </mxCell>
        <mxCell id="W9WCHTceWzW7yV-oWagZ-18" value="Danh sách khách sạn" style="ellipse;whiteSpace=wrap;html=1;" parent="1" vertex="1">
          <mxGeometry x="630" y="310" width="120" height="80" as="geometry" />
        </mxCell>
        <mxCell id="W9WCHTceWzW7yV-oWagZ-20" value="" style="endArrow=classic;startArrow=none;html=1;rounded=0;exitX=1;exitY=0.5;exitDx=0;exitDy=0;dashed=1;startFill=0;entryX=0;entryY=0.5;entryDx=0;entryDy=0;" parent="1" target="W9WCHTceWzW7yV-oWagZ-18" edge="1">
          <mxGeometry width="50" height="50" relative="1" as="geometry">
            <mxPoint x="480" y="349.66999999999996" as="sourcePoint" />
            <mxPoint x="610" y="349.66999999999996" as="targetPoint" />
          </mxGeometry>
        </mxCell>
        <mxCell id="W9WCHTceWzW7yV-oWagZ-21" value="&lt;font style=&quot;font-size: 14px;&quot;&gt;&amp;lt;&amp;lt;Extend&amp;gt;&amp;gt;&lt;/font&gt;" style="edgeLabel;html=1;align=center;verticalAlign=middle;resizable=0;points=[];" parent="W9WCHTceWzW7yV-oWagZ-20" vertex="1" connectable="0">
          <mxGeometry x="-0.02" relative="1" as="geometry">
            <mxPoint as="offset" />
          </mxGeometry>
        </mxCell>
        <mxCell id="W9WCHTceWzW7yV-oWagZ-22" value="" style="endArrow=classic;startArrow=none;html=1;rounded=0;exitX=1;exitY=0.5;exitDx=0;exitDy=0;dashed=1;entryX=0;entryY=0.5;entryDx=0;entryDy=0;startFill=0;" parent="1" target="W9WCHTceWzW7yV-oWagZ-12" edge="1">
          <mxGeometry width="50" height="50" relative="1" as="geometry">
            <mxPoint x="750" y="349.67" as="sourcePoint" />
            <mxPoint x="880" y="349.67" as="targetPoint" />
          </mxGeometry>
        </mxCell>
        <mxCell id="W9WCHTceWzW7yV-oWagZ-23" value="&lt;font style=&quot;font-size: 14px;&quot;&gt;&amp;lt;&amp;lt;Extend&amp;gt;&amp;gt;&lt;/font&gt;" style="edgeLabel;html=1;align=center;verticalAlign=middle;resizable=0;points=[];" parent="W9WCHTceWzW7yV-oWagZ-22" vertex="1" connectable="0">
          <mxGeometry x="-0.02" relative="1" as="geometry">
            <mxPoint as="offset" />
          </mxGeometry>
        </mxCell>
        <mxCell id="W9WCHTceWzW7yV-oWagZ-24" value="" style="endArrow=classic;startArrow=none;html=1;rounded=0;exitX=0.5;exitY=0;exitDx=0;exitDy=0;dashed=1;entryX=0.5;entryY=1;entryDx=0;entryDy=0;startFill=0;" parent="1" source="W9WCHTceWzW7yV-oWagZ-12" target="W9WCHTceWzW7yV-oWagZ-13" edge="1">
          <mxGeometry width="50" height="50" relative="1" as="geometry">
            <mxPoint x="790" y="359.67" as="sourcePoint" />
            <mxPoint x="910" y="360" as="targetPoint" />
          </mxGeometry>
        </mxCell>
        <mxCell id="W9WCHTceWzW7yV-oWagZ-25" value="&amp;lt;&amp;lt;Extend&amp;gt;&amp;gt;" style="edgeLabel;html=1;align=center;verticalAlign=middle;resizable=0;points=[];" parent="W9WCHTceWzW7yV-oWagZ-24" vertex="1" connectable="0">
          <mxGeometry x="-0.02" relative="1" as="geometry">
            <mxPoint as="offset" />
          </mxGeometry>
        </mxCell>
        <mxCell id="W9WCHTceWzW7yV-oWagZ-26" value="" style="endArrow=classic;startArrow=none;html=1;rounded=0;exitX=1;exitY=0.5;exitDx=0;exitDy=0;dashed=1;startFill=0;entryX=0;entryY=0.5;entryDx=0;entryDy=0;" parent="1" source="W9WCHTceWzW7yV-oWagZ-14" target="W9WCHTceWzW7yV-oWagZ-13" edge="1">
          <mxGeometry width="50" height="50" relative="1" as="geometry">
            <mxPoint x="560" y="229.54999999999998" as="sourcePoint" />
            <mxPoint x="690" y="229.54999999999998" as="targetPoint" />
          </mxGeometry>
        </mxCell>
        <mxCell id="W9WCHTceWzW7yV-oWagZ-27" value="&lt;font style=&quot;font-size: 14px;&quot;&gt;&amp;lt;&amp;lt;Include&amp;gt;&amp;gt;&lt;/font&gt;" style="edgeLabel;html=1;align=center;verticalAlign=middle;resizable=0;points=[];" parent="W9WCHTceWzW7yV-oWagZ-26" vertex="1" connectable="0">
          <mxGeometry x="-0.02" relative="1" as="geometry">
            <mxPoint as="offset" />
          </mxGeometry>
        </mxCell>
        <mxCell id="W9WCHTceWzW7yV-oWagZ-29" value="Đăng ký khách sạn" style="ellipse;whiteSpace=wrap;html=1;" parent="1" vertex="1">
          <mxGeometry x="360" y="70" width="120" height="80" as="geometry" />
        </mxCell>
        <mxCell id="W9WCHTceWzW7yV-oWagZ-30" value="" style="endArrow=classic;html=1;rounded=0;entryX=0;entryY=0.5;entryDx=0;entryDy=0;" parent="1" target="W9WCHTceWzW7yV-oWagZ-29" edge="1">
          <mxGeometry width="50" height="50" relative="1" as="geometry">
            <mxPoint x="290" y="220" as="sourcePoint" />
            <mxPoint x="380" y="200" as="targetPoint" />
          </mxGeometry>
        </mxCell>
        <mxCell id="kLgQOa51LK79dz60UhgS-1" value="User" style="rounded=0;whiteSpace=wrap;html=1;fontSize=16;" vertex="1" parent="1">
          <mxGeometry x="1680" y="380" width="120" height="60" as="geometry" />
        </mxCell>
        <mxCell id="kLgQOa51LK79dz60UhgS-2" value="Role" style="rounded=0;whiteSpace=wrap;html=1;fontSize=16;" vertex="1" parent="1">
          <mxGeometry x="1610" y="20" width="120" height="60" as="geometry" />
        </mxCell>
        <mxCell id="kLgQOa51LK79dz60UhgS-3" value="BookedRoom" style="rounded=0;whiteSpace=wrap;html=1;fontSize=16;" vertex="1" parent="1">
          <mxGeometry x="1680" y="840" width="120" height="60" as="geometry" />
        </mxCell>
        <mxCell id="kLgQOa51LK79dz60UhgS-4" value="Own" style="rhombus;whiteSpace=wrap;html=1;fontSize=16;" vertex="1" parent="1">
          <mxGeometry x="1630" y="160" width="80" height="80" as="geometry" />
        </mxCell>
        <mxCell id="kLgQOa51LK79dz60UhgS-5" value="Own" style="rhombus;whiteSpace=wrap;html=1;fontSize=16;" vertex="1" parent="1">
          <mxGeometry x="1700" y="560" width="80" height="80" as="geometry" />
        </mxCell>
        <mxCell id="kLgQOa51LK79dz60UhgS-6" value="" style="endArrow=none;html=1;rounded=0;entryX=0.5;entryY=1;entryDx=0;entryDy=0;fontSize=16;" edge="1" parent="1" source="kLgQOa51LK79dz60UhgS-4" target="kLgQOa51LK79dz60UhgS-2">
          <mxGeometry width="50" height="50" relative="1" as="geometry">
            <mxPoint x="1520" y="130" as="sourcePoint" />
            <mxPoint x="1570" y="80" as="targetPoint" />
          </mxGeometry>
        </mxCell>
        <mxCell id="kLgQOa51LK79dz60UhgS-8" value="" style="endArrow=none;html=1;rounded=0;entryX=0.5;entryY=1;entryDx=0;entryDy=0;exitX=0.5;exitY=0;exitDx=0;exitDy=0;fontSize=16;" edge="1" parent="1" source="kLgQOa51LK79dz60UhgS-5" target="kLgQOa51LK79dz60UhgS-1">
          <mxGeometry width="50" height="50" relative="1" as="geometry">
            <mxPoint x="1830" y="540" as="sourcePoint" />
            <mxPoint x="1830" y="490" as="targetPoint" />
          </mxGeometry>
        </mxCell>
        <mxCell id="kLgQOa51LK79dz60UhgS-9" value="" style="endArrow=none;html=1;rounded=0;entryX=0.5;entryY=1;entryDx=0;entryDy=0;exitX=0.5;exitY=0;exitDx=0;exitDy=0;fontSize=16;" edge="1" parent="1" source="kLgQOa51LK79dz60UhgS-3" target="kLgQOa51LK79dz60UhgS-5">
          <mxGeometry width="50" height="50" relative="1" as="geometry">
            <mxPoint x="1750" y="570" as="sourcePoint" />
            <mxPoint x="1750" y="520" as="targetPoint" />
          </mxGeometry>
        </mxCell>
        <mxCell id="kLgQOa51LK79dz60UhgS-10" value="Rating" style="rounded=0;whiteSpace=wrap;html=1;fontSize=16;" vertex="1" parent="1">
          <mxGeometry x="2120" y="380" width="120" height="60" as="geometry" />
        </mxCell>
        <mxCell id="kLgQOa51LK79dz60UhgS-12" value="Room" style="rounded=0;whiteSpace=wrap;html=1;fontSize=16;" vertex="1" parent="1">
          <mxGeometry x="2120" y="840" width="120" height="60" as="geometry" />
        </mxCell>
        <mxCell id="kLgQOa51LK79dz60UhgS-13" value="Discount" style="rounded=0;whiteSpace=wrap;html=1;fontSize=16;" vertex="1" parent="1">
          <mxGeometry x="2120" y="1090" width="120" height="60" as="geometry" />
        </mxCell>
        <mxCell id="kLgQOa51LK79dz60UhgS-14" value="Hotel" style="rounded=0;whiteSpace=wrap;html=1;fontSize=16;" vertex="1" parent="1">
          <mxGeometry x="1800" y="20" width="120" height="60" as="geometry" />
        </mxCell>
        <mxCell id="kLgQOa51LK79dz60UhgS-15" value="id" style="ellipse;whiteSpace=wrap;html=1;fontSize=16;" vertex="1" parent="1">
          <mxGeometry x="1380" y="30" width="120" height="80" as="geometry" />
        </mxCell>
        <mxCell id="kLgQOa51LK79dz60UhgS-18" value="name" style="ellipse;whiteSpace=wrap;html=1;fontSize=16;" vertex="1" parent="1">
          <mxGeometry x="1400" y="-80" width="120" height="80" as="geometry" />
        </mxCell>
        <mxCell id="kLgQOa51LK79dz60UhgS-20" value="" style="endArrow=none;html=1;rounded=0;exitX=0;exitY=0.5;exitDx=0;exitDy=0;entryX=1;entryY=0.5;entryDx=0;entryDy=0;fontSize=16;" edge="1" parent="1" source="kLgQOa51LK79dz60UhgS-2" target="kLgQOa51LK79dz60UhgS-15">
          <mxGeometry width="50" height="50" relative="1" as="geometry">
            <mxPoint x="1590" y="-10" as="sourcePoint" />
            <mxPoint x="1640" y="-60" as="targetPoint" />
          </mxGeometry>
        </mxCell>
        <mxCell id="kLgQOa51LK79dz60UhgS-21" value="" style="endArrow=none;html=1;rounded=0;exitX=0;exitY=0.5;exitDx=0;exitDy=0;entryX=1;entryY=0.5;entryDx=0;entryDy=0;fontSize=16;" edge="1" parent="1" source="kLgQOa51LK79dz60UhgS-2" target="kLgQOa51LK79dz60UhgS-18">
          <mxGeometry width="50" height="50" relative="1" as="geometry">
            <mxPoint x="1690" y="10" as="sourcePoint" />
            <mxPoint x="1590" y="-60" as="targetPoint" />
          </mxGeometry>
        </mxCell>
        <mxCell id="kLgQOa51LK79dz60UhgS-22" value="Id" style="ellipse;whiteSpace=wrap;html=1;fontSize=16;" vertex="1" parent="1">
          <mxGeometry x="1470" y="160" width="120" height="80" as="geometry" />
        </mxCell>
        <mxCell id="kLgQOa51LK79dz60UhgS-23" value="firstName" style="ellipse;whiteSpace=wrap;html=1;fontSize=16;" vertex="1" parent="1">
          <mxGeometry x="1360" y="220" width="120" height="80" as="geometry" />
        </mxCell>
        <mxCell id="kLgQOa51LK79dz60UhgS-24" value="lastName" style="ellipse;whiteSpace=wrap;html=1;fontSize=16;" vertex="1" parent="1">
          <mxGeometry x="1300" y="300" width="120" height="80" as="geometry" />
        </mxCell>
        <mxCell id="kLgQOa51LK79dz60UhgS-25" value="password" style="ellipse;whiteSpace=wrap;html=1;fontSize=16;" vertex="1" parent="1">
          <mxGeometry x="1290" y="390" width="120" height="80" as="geometry" />
        </mxCell>
        <mxCell id="kLgQOa51LK79dz60UhgS-26" value="phoneNumber" style="ellipse;whiteSpace=wrap;html=1;fontSize=16;" vertex="1" parent="1">
          <mxGeometry x="1470" y="540" width="120" height="80" as="geometry" />
        </mxCell>
        <mxCell id="kLgQOa51LK79dz60UhgS-27" value="role_id" style="ellipse;whiteSpace=wrap;html=1;fontSize=16;" vertex="1" parent="1">
          <mxGeometry x="1350" y="480" width="120" height="80" as="geometry" />
        </mxCell>
        <mxCell id="kLgQOa51LK79dz60UhgS-28" value="" style="endArrow=none;html=1;rounded=0;exitX=0;exitY=0.5;exitDx=0;exitDy=0;entryX=1;entryY=1;entryDx=0;entryDy=0;" edge="1" parent="1" source="kLgQOa51LK79dz60UhgS-1" target="kLgQOa51LK79dz60UhgS-22">
          <mxGeometry width="50" height="50" relative="1" as="geometry">
            <mxPoint x="1630" y="360" as="sourcePoint" />
            <mxPoint x="1680" y="310" as="targetPoint" />
          </mxGeometry>
        </mxCell>
        <mxCell id="kLgQOa51LK79dz60UhgS-29" value="" style="endArrow=none;html=1;rounded=0;exitX=0;exitY=0.5;exitDx=0;exitDy=0;entryX=1;entryY=0.5;entryDx=0;entryDy=0;" edge="1" parent="1" source="kLgQOa51LK79dz60UhgS-1" target="kLgQOa51LK79dz60UhgS-23">
          <mxGeometry width="50" height="50" relative="1" as="geometry">
            <mxPoint x="1690" y="420" as="sourcePoint" />
            <mxPoint x="1620" y="270" as="targetPoint" />
          </mxGeometry>
        </mxCell>
        <mxCell id="kLgQOa51LK79dz60UhgS-30" value="" style="endArrow=none;html=1;rounded=0;entryX=1;entryY=0.5;entryDx=0;entryDy=0;" edge="1" parent="1" target="kLgQOa51LK79dz60UhgS-24">
          <mxGeometry width="50" height="50" relative="1" as="geometry">
            <mxPoint x="1680" y="410" as="sourcePoint" />
            <mxPoint x="1560" y="320" as="targetPoint" />
          </mxGeometry>
        </mxCell>
        <mxCell id="kLgQOa51LK79dz60UhgS-31" value="" style="endArrow=none;html=1;rounded=0;entryX=1;entryY=0.5;entryDx=0;entryDy=0;" edge="1" parent="1" target="kLgQOa51LK79dz60UhgS-25">
          <mxGeometry width="50" height="50" relative="1" as="geometry">
            <mxPoint x="1680" y="410" as="sourcePoint" />
            <mxPoint x="1511" y="415" as="targetPoint" />
          </mxGeometry>
        </mxCell>
        <mxCell id="kLgQOa51LK79dz60UhgS-32" value="" style="endArrow=none;html=1;rounded=0;entryX=1;entryY=0;entryDx=0;entryDy=0;" edge="1" parent="1" target="kLgQOa51LK79dz60UhgS-27">
          <mxGeometry width="50" height="50" relative="1" as="geometry">
            <mxPoint x="1680" y="410" as="sourcePoint" />
            <mxPoint x="1540" y="520" as="targetPoint" />
          </mxGeometry>
        </mxCell>
        <mxCell id="kLgQOa51LK79dz60UhgS-33" value="" style="endArrow=none;html=1;rounded=0;exitX=0;exitY=0.5;exitDx=0;exitDy=0;entryX=1;entryY=0;entryDx=0;entryDy=0;" edge="1" parent="1" source="kLgQOa51LK79dz60UhgS-1" target="kLgQOa51LK79dz60UhgS-26">
          <mxGeometry width="50" height="50" relative="1" as="geometry">
            <mxPoint x="1690" y="420" as="sourcePoint" />
            <mxPoint x="1662" y="258" as="targetPoint" />
          </mxGeometry>
        </mxCell>
        <mxCell id="kLgQOa51LK79dz60UhgS-35" value="id" style="ellipse;whiteSpace=wrap;html=1;fontSize=16;" vertex="1" parent="1">
          <mxGeometry x="1460" y="650" width="120" height="80" as="geometry" />
        </mxCell>
        <mxCell id="kLgQOa51LK79dz60UhgS-36" value="checkInDate" style="ellipse;whiteSpace=wrap;html=1;fontSize=16;" vertex="1" parent="1">
          <mxGeometry x="1390" y="730" width="120" height="80" as="geometry" />
        </mxCell>
        <mxCell id="kLgQOa51LK79dz60UhgS-37" value="checkOutDate" style="ellipse;whiteSpace=wrap;html=1;fontSize=16;" vertex="1" parent="1">
          <mxGeometry x="1350" y="810" width="120" height="80" as="geometry" />
        </mxCell>
        <mxCell id="kLgQOa51LK79dz60UhgS-38" value="guestFullName" style="ellipse;whiteSpace=wrap;html=1;fontSize=16;" vertex="1" parent="1">
          <mxGeometry x="1350" y="900" width="120" height="80" as="geometry" />
        </mxCell>
        <mxCell id="kLgQOa51LK79dz60UhgS-39" value="guestEmail" style="ellipse;whiteSpace=wrap;html=1;fontSize=16;" vertex="1" parent="1">
          <mxGeometry x="1350" y="1000" width="120" height="80" as="geometry" />
        </mxCell>
        <mxCell id="kLgQOa51LK79dz60UhgS-40" value="numOfAdults" style="ellipse;whiteSpace=wrap;html=1;fontSize=16;" vertex="1" parent="1">
          <mxGeometry x="1440" y="1210" width="120" height="80" as="geometry" />
        </mxCell>
        <mxCell id="kLgQOa51LK79dz60UhgS-41" value="numOfChildren" style="ellipse;whiteSpace=wrap;html=1;fontSize=16;" vertex="1" parent="1">
          <mxGeometry x="1540" y="1300" width="120" height="80" as="geometry" />
        </mxCell>
        <mxCell id="kLgQOa51LK79dz60UhgS-42" value="booking&lt;div&gt;ConfimationCode&lt;/div&gt;" style="ellipse;whiteSpace=wrap;html=1;fontSize=16;" vertex="1" parent="1">
          <mxGeometry x="1680" y="1300" width="120" height="80" as="geometry" />
        </mxCell>
        <mxCell id="kLgQOa51LK79dz60UhgS-43" value="phoneNumber" style="ellipse;whiteSpace=wrap;html=1;fontSize=16;" vertex="1" parent="1">
          <mxGeometry x="1948" y="1250" width="120" height="80" as="geometry" />
        </mxCell>
        <mxCell id="kLgQOa51LK79dz60UhgS-44" value="room_id" style="ellipse;whiteSpace=wrap;html=1;fontSize=16;" vertex="1" parent="1">
          <mxGeometry x="1820" y="1300" width="120" height="80" as="geometry" />
        </mxCell>
        <mxCell id="kLgQOa51LK79dz60UhgS-45" value="user_id" style="ellipse;whiteSpace=wrap;html=1;fontSize=16;" vertex="1" parent="1">
          <mxGeometry x="1360" y="1100" width="120" height="80" as="geometry" />
        </mxCell>
        <mxCell id="kLgQOa51LK79dz60UhgS-46" value="" style="endArrow=none;html=1;rounded=0;exitX=1;exitY=1;exitDx=0;exitDy=0;entryX=0;entryY=0.5;entryDx=0;entryDy=0;" edge="1" parent="1" source="kLgQOa51LK79dz60UhgS-35" target="kLgQOa51LK79dz60UhgS-3">
          <mxGeometry width="50" height="50" relative="1" as="geometry">
            <mxPoint x="1590" y="820" as="sourcePoint" />
            <mxPoint x="1640" y="770" as="targetPoint" />
          </mxGeometry>
        </mxCell>
        <mxCell id="kLgQOa51LK79dz60UhgS-47" value="" style="endArrow=none;html=1;rounded=0;exitX=1;exitY=0.5;exitDx=0;exitDy=0;" edge="1" parent="1" source="kLgQOa51LK79dz60UhgS-36">
          <mxGeometry width="50" height="50" relative="1" as="geometry">
            <mxPoint x="1582" y="778" as="sourcePoint" />
            <mxPoint x="1680" y="870" as="targetPoint" />
          </mxGeometry>
        </mxCell>
        <mxCell id="kLgQOa51LK79dz60UhgS-48" value="" style="endArrow=none;html=1;rounded=0;exitX=1;exitY=0.5;exitDx=0;exitDy=0;entryX=0;entryY=0.5;entryDx=0;entryDy=0;" edge="1" parent="1" source="kLgQOa51LK79dz60UhgS-37" target="kLgQOa51LK79dz60UhgS-3">
          <mxGeometry width="50" height="50" relative="1" as="geometry">
            <mxPoint x="1530" y="840" as="sourcePoint" />
            <mxPoint x="1690" y="880" as="targetPoint" />
          </mxGeometry>
        </mxCell>
        <mxCell id="kLgQOa51LK79dz60UhgS-49" value="" style="endArrow=none;html=1;rounded=0;exitX=1;exitY=0.5;exitDx=0;exitDy=0;" edge="1" parent="1" source="kLgQOa51LK79dz60UhgS-38">
          <mxGeometry width="50" height="50" relative="1" as="geometry">
            <mxPoint x="1540" y="850" as="sourcePoint" />
            <mxPoint x="1680" y="870" as="targetPoint" />
          </mxGeometry>
        </mxCell>
        <mxCell id="kLgQOa51LK79dz60UhgS-50" value="" style="endArrow=none;html=1;rounded=0;exitX=1;exitY=0.5;exitDx=0;exitDy=0;entryX=0;entryY=0.5;entryDx=0;entryDy=0;" edge="1" parent="1" source="kLgQOa51LK79dz60UhgS-39" target="kLgQOa51LK79dz60UhgS-3">
          <mxGeometry width="50" height="50" relative="1" as="geometry">
            <mxPoint x="1480" y="950" as="sourcePoint" />
            <mxPoint x="1690" y="880" as="targetPoint" />
          </mxGeometry>
        </mxCell>
        <mxCell id="kLgQOa51LK79dz60UhgS-51" value="" style="endArrow=none;html=1;rounded=0;exitX=1;exitY=0;exitDx=0;exitDy=0;" edge="1" parent="1" source="kLgQOa51LK79dz60UhgS-45">
          <mxGeometry width="50" height="50" relative="1" as="geometry">
            <mxPoint x="1511" y="1040" as="sourcePoint" />
            <mxPoint x="1680" y="870" as="targetPoint" />
          </mxGeometry>
        </mxCell>
        <mxCell id="kLgQOa51LK79dz60UhgS-52" value="" style="endArrow=none;html=1;rounded=0;exitX=0.5;exitY=0;exitDx=0;exitDy=0;entryX=0.5;entryY=1;entryDx=0;entryDy=0;" edge="1" parent="1" source="kLgQOa51LK79dz60UhgS-40" target="kLgQOa51LK79dz60UhgS-3">
          <mxGeometry width="50" height="50" relative="1" as="geometry">
            <mxPoint x="1553" y="1101" as="sourcePoint" />
            <mxPoint x="1690" y="880" as="targetPoint" />
          </mxGeometry>
        </mxCell>
        <mxCell id="kLgQOa51LK79dz60UhgS-53" value="" style="endArrow=none;html=1;rounded=0;exitX=0.5;exitY=0;exitDx=0;exitDy=0;entryX=0.5;entryY=1;entryDx=0;entryDy=0;" edge="1" parent="1" source="kLgQOa51LK79dz60UhgS-41" target="kLgQOa51LK79dz60UhgS-3">
          <mxGeometry width="50" height="50" relative="1" as="geometry">
            <mxPoint x="1620" y="1160" as="sourcePoint" />
            <mxPoint x="1750" y="910" as="targetPoint" />
          </mxGeometry>
        </mxCell>
        <mxCell id="kLgQOa51LK79dz60UhgS-54" value="" style="endArrow=none;html=1;rounded=0;exitX=0.5;exitY=0;exitDx=0;exitDy=0;entryX=0.5;entryY=1;entryDx=0;entryDy=0;" edge="1" parent="1" source="kLgQOa51LK79dz60UhgS-42" target="kLgQOa51LK79dz60UhgS-3">
          <mxGeometry width="50" height="50" relative="1" as="geometry">
            <mxPoint x="1750" y="1170" as="sourcePoint" />
            <mxPoint x="1750" y="910" as="targetPoint" />
          </mxGeometry>
        </mxCell>
        <mxCell id="kLgQOa51LK79dz60UhgS-55" value="" style="endArrow=none;html=1;rounded=0;exitX=0;exitY=0;exitDx=0;exitDy=0;entryX=0.5;entryY=1;entryDx=0;entryDy=0;" edge="1" parent="1" source="kLgQOa51LK79dz60UhgS-43" target="kLgQOa51LK79dz60UhgS-3">
          <mxGeometry width="50" height="50" relative="1" as="geometry">
            <mxPoint x="1890" y="1150" as="sourcePoint" />
            <mxPoint x="1750" y="910" as="targetPoint" />
          </mxGeometry>
        </mxCell>
        <mxCell id="kLgQOa51LK79dz60UhgS-56" value="" style="endArrow=none;html=1;rounded=0;exitX=0;exitY=0.5;exitDx=0;exitDy=0;entryX=0.5;entryY=1;entryDx=0;entryDy=0;" edge="1" parent="1" source="kLgQOa51LK79dz60UhgS-44" target="kLgQOa51LK79dz60UhgS-3">
          <mxGeometry width="50" height="50" relative="1" as="geometry">
            <mxPoint x="1924" y="1110" as="sourcePoint" />
            <mxPoint x="1750" y="910" as="targetPoint" />
          </mxGeometry>
        </mxCell>
        <mxCell id="kLgQOa51LK79dz60UhgS-58" value="id" style="ellipse;whiteSpace=wrap;html=1;fontSize=16;" vertex="1" parent="1">
          <mxGeometry x="2080" y="1330" width="120" height="80" as="geometry" />
        </mxCell>
        <mxCell id="kLgQOa51LK79dz60UhgS-59" value="percent&lt;div&gt;Discount&lt;/div&gt;" style="ellipse;whiteSpace=wrap;html=1;fontSize=16;" vertex="1" parent="1">
          <mxGeometry x="2310" y="1260" width="120" height="80" as="geometry" />
        </mxCell>
        <mxCell id="kLgQOa51LK79dz60UhgS-60" value="coupon&lt;div&gt;Description&lt;/div&gt;" style="ellipse;whiteSpace=wrap;html=1;fontSize=16;" vertex="1" parent="1">
          <mxGeometry x="2410" y="1200" width="120" height="80" as="geometry" />
        </mxCell>
        <mxCell id="kLgQOa51LK79dz60UhgS-61" value="room_id" style="ellipse;whiteSpace=wrap;html=1;fontSize=16;" vertex="1" parent="1">
          <mxGeometry x="2220" y="1330" width="120" height="80" as="geometry" />
        </mxCell>
        <mxCell id="kLgQOa51LK79dz60UhgS-62" value="" style="endArrow=none;html=1;rounded=0;exitX=0.5;exitY=0;exitDx=0;exitDy=0;entryX=0.5;entryY=1;entryDx=0;entryDy=0;" edge="1" parent="1" source="kLgQOa51LK79dz60UhgS-58" target="kLgQOa51LK79dz60UhgS-13">
          <mxGeometry width="50" height="50" relative="1" as="geometry">
            <mxPoint x="2910" y="1210" as="sourcePoint" />
            <mxPoint x="2960" y="1160" as="targetPoint" />
          </mxGeometry>
        </mxCell>
        <mxCell id="kLgQOa51LK79dz60UhgS-63" value="" style="endArrow=none;html=1;rounded=0;exitX=0;exitY=0;exitDx=0;exitDy=0;entryX=0.5;entryY=1;entryDx=0;entryDy=0;" edge="1" parent="1" source="kLgQOa51LK79dz60UhgS-59" target="kLgQOa51LK79dz60UhgS-13">
          <mxGeometry width="50" height="50" relative="1" as="geometry">
            <mxPoint x="2850" y="1210" as="sourcePoint" />
            <mxPoint x="2970" y="1260" as="targetPoint" />
          </mxGeometry>
        </mxCell>
        <mxCell id="kLgQOa51LK79dz60UhgS-64" value="" style="endArrow=none;html=1;rounded=0;exitX=0;exitY=0;exitDx=0;exitDy=0;entryX=0.5;entryY=1;entryDx=0;entryDy=0;" edge="1" parent="1" source="kLgQOa51LK79dz60UhgS-60" target="kLgQOa51LK79dz60UhgS-13">
          <mxGeometry width="50" height="50" relative="1" as="geometry">
            <mxPoint x="2890" y="1140" as="sourcePoint" />
            <mxPoint x="2970" y="1260" as="targetPoint" />
          </mxGeometry>
        </mxCell>
        <mxCell id="kLgQOa51LK79dz60UhgS-65" value="" style="endArrow=none;html=1;rounded=0;exitX=0;exitY=0;exitDx=0;exitDy=0;entryX=0.5;entryY=1;entryDx=0;entryDy=0;" edge="1" parent="1" source="kLgQOa51LK79dz60UhgS-61" target="kLgQOa51LK79dz60UhgS-13">
          <mxGeometry width="50" height="50" relative="1" as="geometry">
            <mxPoint x="3040" y="1140" as="sourcePoint" />
            <mxPoint x="2970" y="1260" as="targetPoint" />
          </mxGeometry>
        </mxCell>
        <mxCell id="kLgQOa51LK79dz60UhgS-66" value="id" style="ellipse;whiteSpace=wrap;html=1;fontSize=16;" vertex="1" parent="1">
          <mxGeometry x="1960" y="240" width="120" height="80" as="geometry" />
        </mxCell>
        <mxCell id="kLgQOa51LK79dz60UhgS-67" value="star" style="ellipse;whiteSpace=wrap;html=1;fontSize=16;" vertex="1" parent="1">
          <mxGeometry x="2020" y="150" width="120" height="80" as="geometry" />
        </mxCell>
        <mxCell id="kLgQOa51LK79dz60UhgS-68" value="comment" style="ellipse;whiteSpace=wrap;html=1;fontSize=16;" vertex="1" parent="1">
          <mxGeometry x="2270" y="100" width="120" height="80" as="geometry" />
        </mxCell>
        <mxCell id="kLgQOa51LK79dz60UhgS-69" value="rateDay" style="ellipse;whiteSpace=wrap;html=1;fontSize=16;" vertex="1" parent="1">
          <mxGeometry x="2140" y="90" width="120" height="80" as="geometry" />
        </mxCell>
        <mxCell id="kLgQOa51LK79dz60UhgS-71" value="bookedRoom_id" style="ellipse;whiteSpace=wrap;html=1;fontSize=16;" vertex="1" parent="1">
          <mxGeometry x="2310" y="220" width="120" height="80" as="geometry" />
        </mxCell>
        <mxCell id="kLgQOa51LK79dz60UhgS-72" value="user_id" style="ellipse;whiteSpace=wrap;html=1;fontSize=16;" vertex="1" parent="1">
          <mxGeometry x="2300" y="320" width="120" height="80" as="geometry" />
        </mxCell>
        <mxCell id="kLgQOa51LK79dz60UhgS-73" value="" style="endArrow=none;html=1;rounded=0;entryX=1;entryY=0.5;entryDx=0;entryDy=0;fontSize=16;exitX=0.5;exitY=0;exitDx=0;exitDy=0;" edge="1" parent="1" source="kLgQOa51LK79dz60UhgS-10" target="kLgQOa51LK79dz60UhgS-66">
          <mxGeometry width="50" height="50" relative="1" as="geometry">
            <mxPoint x="2180" y="345" as="sourcePoint" />
            <mxPoint x="1730" y="240" as="targetPoint" />
          </mxGeometry>
        </mxCell>
        <mxCell id="kLgQOa51LK79dz60UhgS-75" value="" style="endArrow=none;html=1;rounded=0;entryX=0.5;entryY=1;entryDx=0;entryDy=0;fontSize=16;exitX=0.5;exitY=0;exitDx=0;exitDy=0;" edge="1" parent="1" source="kLgQOa51LK79dz60UhgS-10" target="kLgQOa51LK79dz60UhgS-69">
          <mxGeometry width="50" height="50" relative="1" as="geometry">
            <mxPoint x="2180" y="345" as="sourcePoint" />
            <mxPoint x="2040" y="248" as="targetPoint" />
            <Array as="points" />
          </mxGeometry>
        </mxCell>
        <mxCell id="kLgQOa51LK79dz60UhgS-76" value="" style="endArrow=none;html=1;rounded=0;entryX=0;entryY=1;entryDx=0;entryDy=0;fontSize=16;exitX=0.5;exitY=0;exitDx=0;exitDy=0;" edge="1" parent="1" source="kLgQOa51LK79dz60UhgS-10" target="kLgQOa51LK79dz60UhgS-68">
          <mxGeometry width="50" height="50" relative="1" as="geometry">
            <mxPoint x="2180" y="345" as="sourcePoint" />
            <mxPoint x="2050" y="258" as="targetPoint" />
          </mxGeometry>
        </mxCell>
        <mxCell id="kLgQOa51LK79dz60UhgS-77" value="" style="endArrow=none;html=1;rounded=0;entryX=0;entryY=0.5;entryDx=0;entryDy=0;fontSize=16;" edge="1" parent="1" target="kLgQOa51LK79dz60UhgS-71">
          <mxGeometry width="50" height="50" relative="1" as="geometry">
            <mxPoint x="2180" y="380" as="sourcePoint" />
            <mxPoint x="2270" y="180" as="targetPoint" />
          </mxGeometry>
        </mxCell>
        <mxCell id="kLgQOa51LK79dz60UhgS-78" value="" style="endArrow=none;html=1;rounded=0;entryX=0;entryY=0.5;entryDx=0;entryDy=0;fontSize=16;exitX=0.5;exitY=0;exitDx=0;exitDy=0;" edge="1" parent="1" source="kLgQOa51LK79dz60UhgS-10" target="kLgQOa51LK79dz60UhgS-72">
          <mxGeometry width="50" height="50" relative="1" as="geometry">
            <mxPoint x="2180" y="345" as="sourcePoint" />
            <mxPoint x="2300" y="220" as="targetPoint" />
          </mxGeometry>
        </mxCell>
        <mxCell id="kLgQOa51LK79dz60UhgS-79" value="id" style="ellipse;whiteSpace=wrap;html=1;fontSize=16;" vertex="1" parent="1">
          <mxGeometry x="2490" y="710" width="120" height="80" as="geometry" />
        </mxCell>
        <mxCell id="kLgQOa51LK79dz60UhgS-80" value="isBooked" style="ellipse;whiteSpace=wrap;html=1;fontSize=16;" vertex="1" parent="1">
          <mxGeometry x="2490" y="900" width="120" height="80" as="geometry" />
        </mxCell>
        <mxCell id="kLgQOa51LK79dz60UhgS-81" value="roomPrice" style="ellipse;whiteSpace=wrap;html=1;fontSize=16;" vertex="1" parent="1">
          <mxGeometry x="2420" y="980" width="120" height="80" as="geometry" />
        </mxCell>
        <mxCell id="kLgQOa51LK79dz60UhgS-82" value="roomType" style="ellipse;whiteSpace=wrap;html=1;fontSize=16;" vertex="1" parent="1">
          <mxGeometry x="2310" y="1030" width="120" height="80" as="geometry" />
        </mxCell>
        <mxCell id="kLgQOa51LK79dz60UhgS-83" value="room&lt;div&gt;Description&lt;/div&gt;" style="ellipse;whiteSpace=wrap;html=1;fontSize=16;" vertex="1" parent="1">
          <mxGeometry x="2510" y="800" width="120" height="80" as="geometry" />
        </mxCell>
        <mxCell id="kLgQOa51LK79dz60UhgS-84" value="photo" style="ellipse;whiteSpace=wrap;html=1;fontSize=16;" vertex="1" parent="1">
          <mxGeometry x="2430" y="620" width="120" height="80" as="geometry" />
        </mxCell>
        <mxCell id="kLgQOa51LK79dz60UhgS-85" value="hoterl_id" style="ellipse;whiteSpace=wrap;html=1;fontSize=16;" vertex="1" parent="1">
          <mxGeometry x="2330" y="560" width="120" height="80" as="geometry" />
        </mxCell>
        <mxCell id="kLgQOa51LK79dz60UhgS-87" value="id" style="ellipse;whiteSpace=wrap;html=1;fontSize=16;" vertex="1" parent="1">
          <mxGeometry x="1590" y="-205" width="120" height="80" as="geometry" />
        </mxCell>
        <mxCell id="kLgQOa51LK79dz60UhgS-88" value="hotelName" style="ellipse;whiteSpace=wrap;html=1;fontSize=16;" vertex="1" parent="1">
          <mxGeometry x="1660" y="-285" width="120" height="80" as="geometry" />
        </mxCell>
        <mxCell id="kLgQOa51LK79dz60UhgS-89" value="city" style="ellipse;whiteSpace=wrap;html=1;fontSize=16;" vertex="1" parent="1">
          <mxGeometry x="1770" y="-340" width="120" height="80" as="geometry" />
        </mxCell>
        <mxCell id="kLgQOa51LK79dz60UhgS-90" value="address" style="ellipse;whiteSpace=wrap;html=1;fontSize=16;" vertex="1" parent="1">
          <mxGeometry x="1910" y="-330" width="120" height="80" as="geometry" />
        </mxCell>
        <mxCell id="kLgQOa51LK79dz60UhgS-91" value="hotel&lt;div&gt;Description&lt;/div&gt;" style="ellipse;whiteSpace=wrap;html=1;fontSize=16;" vertex="1" parent="1">
          <mxGeometry x="2020" y="-285" width="120" height="80" as="geometry" />
        </mxCell>
        <mxCell id="kLgQOa51LK79dz60UhgS-92" value="phoneNumber" style="ellipse;whiteSpace=wrap;html=1;fontSize=16;" vertex="1" parent="1">
          <mxGeometry x="2080" y="-205" width="120" height="80" as="geometry" />
        </mxCell>
        <mxCell id="kLgQOa51LK79dz60UhgS-93" value="user_id" style="ellipse;whiteSpace=wrap;html=1;fontSize=16;" vertex="1" parent="1">
          <mxGeometry x="2100" y="-90" width="120" height="80" as="geometry" />
        </mxCell>
        <mxCell id="kLgQOa51LK79dz60UhgS-94" value="hotelPhoto" style="ellipse;whiteSpace=wrap;html=1;fontSize=16;" vertex="1" parent="1">
          <mxGeometry x="1560" y="-115" width="120" height="80" as="geometry" />
        </mxCell>
        <mxCell id="kLgQOa51LK79dz60UhgS-95" value="" style="endArrow=none;html=1;rounded=0;entryX=1;entryY=1;entryDx=0;entryDy=0;exitX=0.5;exitY=0;exitDx=0;exitDy=0;" edge="1" parent="1" source="kLgQOa51LK79dz60UhgS-14" target="kLgQOa51LK79dz60UhgS-94">
          <mxGeometry width="50" height="50" relative="1" as="geometry">
            <mxPoint x="1877" y="-345" as="sourcePoint" />
            <mxPoint x="1927" y="-395" as="targetPoint" />
          </mxGeometry>
        </mxCell>
        <mxCell id="kLgQOa51LK79dz60UhgS-96" value="" style="endArrow=none;html=1;rounded=0;entryX=1;entryY=1;entryDx=0;entryDy=0;exitX=0.5;exitY=0;exitDx=0;exitDy=0;" edge="1" parent="1" source="kLgQOa51LK79dz60UhgS-14" target="kLgQOa51LK79dz60UhgS-87">
          <mxGeometry width="50" height="50" relative="1" as="geometry">
            <mxPoint x="1977" y="-215" as="sourcePoint" />
            <mxPoint x="1887" y="-410" as="targetPoint" />
          </mxGeometry>
        </mxCell>
        <mxCell id="kLgQOa51LK79dz60UhgS-97" value="" style="endArrow=none;html=1;rounded=0;entryX=0.5;entryY=1;entryDx=0;entryDy=0;exitX=0.5;exitY=0;exitDx=0;exitDy=0;" edge="1" parent="1" source="kLgQOa51LK79dz60UhgS-14" target="kLgQOa51LK79dz60UhgS-88">
          <mxGeometry width="50" height="50" relative="1" as="geometry">
            <mxPoint x="1967" y="-225" as="sourcePoint" />
            <mxPoint x="2027" y="-405" as="targetPoint" />
          </mxGeometry>
        </mxCell>
        <mxCell id="kLgQOa51LK79dz60UhgS-98" value="" style="endArrow=none;html=1;rounded=0;entryX=0.5;entryY=1;entryDx=0;entryDy=0;exitX=0.5;exitY=0;exitDx=0;exitDy=0;" edge="1" parent="1" source="kLgQOa51LK79dz60UhgS-14" target="kLgQOa51LK79dz60UhgS-89">
          <mxGeometry width="50" height="50" relative="1" as="geometry">
            <mxPoint x="1967" y="-225" as="sourcePoint" />
            <mxPoint x="2105" y="-387" as="targetPoint" />
          </mxGeometry>
        </mxCell>
        <mxCell id="kLgQOa51LK79dz60UhgS-99" value="" style="endArrow=none;html=1;rounded=0;entryX=0.5;entryY=1;entryDx=0;entryDy=0;exitX=0.5;exitY=0;exitDx=0;exitDy=0;" edge="1" parent="1" source="kLgQOa51LK79dz60UhgS-14" target="kLgQOa51LK79dz60UhgS-90">
          <mxGeometry width="50" height="50" relative="1" as="geometry">
            <mxPoint x="1967" y="-225" as="sourcePoint" />
            <mxPoint x="2167" y="-335" as="targetPoint" />
          </mxGeometry>
        </mxCell>
        <mxCell id="kLgQOa51LK79dz60UhgS-100" value="" style="endArrow=none;html=1;rounded=0;entryX=0;entryY=1;entryDx=0;entryDy=0;exitX=0.5;exitY=0;exitDx=0;exitDy=0;" edge="1" parent="1" source="kLgQOa51LK79dz60UhgS-14" target="kLgQOa51LK79dz60UhgS-91">
          <mxGeometry width="50" height="50" relative="1" as="geometry">
            <mxPoint x="1977" y="-215" as="sourcePoint" />
            <mxPoint x="2197" y="-255" as="targetPoint" />
          </mxGeometry>
        </mxCell>
        <mxCell id="kLgQOa51LK79dz60UhgS-101" value="" style="endArrow=none;html=1;rounded=0;entryX=0;entryY=1;entryDx=0;entryDy=0;exitX=0.5;exitY=0;exitDx=0;exitDy=0;" edge="1" parent="1" source="kLgQOa51LK79dz60UhgS-14" target="kLgQOa51LK79dz60UhgS-92">
          <mxGeometry width="50" height="50" relative="1" as="geometry">
            <mxPoint x="2037" y="-185" as="sourcePoint" />
            <mxPoint x="2197" y="-165" as="targetPoint" />
          </mxGeometry>
        </mxCell>
        <mxCell id="kLgQOa51LK79dz60UhgS-102" value="" style="endArrow=none;html=1;rounded=0;entryX=0;entryY=0.5;entryDx=0;entryDy=0;exitX=0.5;exitY=0;exitDx=0;exitDy=0;" edge="1" parent="1" source="kLgQOa51LK79dz60UhgS-14" target="kLgQOa51LK79dz60UhgS-93">
          <mxGeometry width="50" height="50" relative="1" as="geometry">
            <mxPoint x="2037" y="-185" as="sourcePoint" />
            <mxPoint x="2195" y="-103" as="targetPoint" />
          </mxGeometry>
        </mxCell>
        <mxCell id="kLgQOa51LK79dz60UhgS-103" value="Own" style="rhombus;whiteSpace=wrap;html=1;fontSize=16;" vertex="1" parent="1">
          <mxGeometry x="1954" y="370" width="80" height="80" as="geometry" />
        </mxCell>
        <mxCell id="kLgQOa51LK79dz60UhgS-104" value="have" style="rhombus;whiteSpace=wrap;html=1;fontSize=16;" vertex="1" parent="1">
          <mxGeometry x="1954" y="560" width="80" height="80" as="geometry" />
        </mxCell>
        <mxCell id="kLgQOa51LK79dz60UhgS-105" value="" style="endArrow=none;html=1;rounded=0;entryX=0;entryY=0.5;entryDx=0;entryDy=0;fontSize=16;exitX=1;exitY=0.5;exitDx=0;exitDy=0;" edge="1" parent="1" source="kLgQOa51LK79dz60UhgS-1" target="kLgQOa51LK79dz60UhgS-103">
          <mxGeometry width="50" height="50" relative="1" as="geometry">
            <mxPoint x="1750" y="390" as="sourcePoint" />
            <mxPoint x="1750" y="270" as="targetPoint" />
          </mxGeometry>
        </mxCell>
        <mxCell id="kLgQOa51LK79dz60UhgS-106" value="" style="endArrow=none;html=1;rounded=0;entryX=0;entryY=0.5;entryDx=0;entryDy=0;fontSize=16;exitX=1;exitY=0.5;exitDx=0;exitDy=0;" edge="1" parent="1" source="kLgQOa51LK79dz60UhgS-103" target="kLgQOa51LK79dz60UhgS-10">
          <mxGeometry width="50" height="50" relative="1" as="geometry">
            <mxPoint x="2210" y="519.23" as="sourcePoint" />
            <mxPoint x="2420" y="519.23" as="targetPoint" />
          </mxGeometry>
        </mxCell>
        <mxCell id="kLgQOa51LK79dz60UhgS-107" value="" style="endArrow=none;html=1;rounded=0;exitX=1;exitY=0.25;exitDx=0;exitDy=0;entryX=0;entryY=0.5;entryDx=0;entryDy=0;" edge="1" parent="1" source="kLgQOa51LK79dz60UhgS-3" target="kLgQOa51LK79dz60UhgS-104">
          <mxGeometry width="50" height="50" relative="1" as="geometry">
            <mxPoint x="1880" y="880" as="sourcePoint" />
            <mxPoint x="1930" y="830" as="targetPoint" />
            <Array as="points">
              <mxPoint x="1920" y="855" />
              <mxPoint x="1920" y="600" />
            </Array>
          </mxGeometry>
        </mxCell>
        <mxCell id="kLgQOa51LK79dz60UhgS-108" value="" style="endArrow=none;html=1;rounded=0;entryX=0.5;entryY=0;entryDx=0;entryDy=0;fontSize=16;exitX=1;exitY=1;exitDx=0;exitDy=0;" edge="1" parent="1" source="kLgQOa51LK79dz60UhgS-67" target="kLgQOa51LK79dz60UhgS-10">
          <mxGeometry width="50" height="50" relative="1" as="geometry">
            <mxPoint x="2190" y="390" as="sourcePoint" />
            <mxPoint x="2310" y="320" as="targetPoint" />
          </mxGeometry>
        </mxCell>
        <mxCell id="kLgQOa51LK79dz60UhgS-109" value="" style="endArrow=none;html=1;rounded=0;entryX=0.5;entryY=1;entryDx=0;entryDy=0;fontSize=16;exitX=1;exitY=0.5;exitDx=0;exitDy=0;" edge="1" parent="1" source="kLgQOa51LK79dz60UhgS-104" target="kLgQOa51LK79dz60UhgS-10">
          <mxGeometry width="50" height="50" relative="1" as="geometry">
            <mxPoint x="2044" y="420" as="sourcePoint" />
            <mxPoint x="2130" y="420" as="targetPoint" />
            <Array as="points">
              <mxPoint x="2180" y="600" />
            </Array>
          </mxGeometry>
        </mxCell>
        <mxCell id="kLgQOa51LK79dz60UhgS-110" value="have" style="rhombus;whiteSpace=wrap;html=1;fontSize=16;" vertex="1" parent="1">
          <mxGeometry x="1954" y="830" width="80" height="80" as="geometry" />
        </mxCell>
        <mxCell id="kLgQOa51LK79dz60UhgS-111" value="" style="endArrow=none;html=1;rounded=0;exitX=1;exitY=0.5;exitDx=0;exitDy=0;entryX=0;entryY=0.5;entryDx=0;entryDy=0;" edge="1" parent="1" source="kLgQOa51LK79dz60UhgS-110" target="kLgQOa51LK79dz60UhgS-12">
          <mxGeometry width="50" height="50" relative="1" as="geometry">
            <mxPoint x="2050" y="810" as="sourcePoint" />
            <mxPoint x="2100" y="760" as="targetPoint" />
          </mxGeometry>
        </mxCell>
        <mxCell id="kLgQOa51LK79dz60UhgS-112" value="" style="endArrow=none;html=1;rounded=0;exitX=1;exitY=0.5;exitDx=0;exitDy=0;entryX=0;entryY=0.5;entryDx=0;entryDy=0;" edge="1" parent="1" source="kLgQOa51LK79dz60UhgS-3" target="kLgQOa51LK79dz60UhgS-110">
          <mxGeometry width="50" height="50" relative="1" as="geometry">
            <mxPoint x="1880" y="980" as="sourcePoint" />
            <mxPoint x="1930" y="930" as="targetPoint" />
          </mxGeometry>
        </mxCell>
        <mxCell id="kLgQOa51LK79dz60UhgS-115" value="have" style="rhombus;whiteSpace=wrap;html=1;fontSize=16;" vertex="1" parent="1">
          <mxGeometry x="2140" y="950" width="80" height="80" as="geometry" />
        </mxCell>
        <mxCell id="kLgQOa51LK79dz60UhgS-116" value="" style="endArrow=none;html=1;rounded=0;entryX=0.5;entryY=1;entryDx=0;entryDy=0;exitX=0.5;exitY=0;exitDx=0;exitDy=0;" edge="1" parent="1" source="kLgQOa51LK79dz60UhgS-115" target="kLgQOa51LK79dz60UhgS-12">
          <mxGeometry width="50" height="50" relative="1" as="geometry">
            <mxPoint x="1980" y="990" as="sourcePoint" />
            <mxPoint x="2030" y="940" as="targetPoint" />
          </mxGeometry>
        </mxCell>
        <mxCell id="kLgQOa51LK79dz60UhgS-117" value="" style="endArrow=none;html=1;rounded=0;entryX=0.5;entryY=1;entryDx=0;entryDy=0;exitX=0.5;exitY=0;exitDx=0;exitDy=0;" edge="1" parent="1" source="kLgQOa51LK79dz60UhgS-13" target="kLgQOa51LK79dz60UhgS-115">
          <mxGeometry width="50" height="50" relative="1" as="geometry">
            <mxPoint x="2190" y="960" as="sourcePoint" />
            <mxPoint x="2190" y="910" as="targetPoint" />
          </mxGeometry>
        </mxCell>
        <mxCell id="kLgQOa51LK79dz60UhgS-118" value="" style="endArrow=none;html=1;rounded=0;exitX=0;exitY=1;exitDx=0;exitDy=0;entryX=1;entryY=0.5;entryDx=0;entryDy=0;" edge="1" parent="1" source="kLgQOa51LK79dz60UhgS-85" target="kLgQOa51LK79dz60UhgS-12">
          <mxGeometry width="50" height="50" relative="1" as="geometry">
            <mxPoint x="2044" y="880" as="sourcePoint" />
            <mxPoint x="2130" y="880" as="targetPoint" />
          </mxGeometry>
        </mxCell>
        <mxCell id="kLgQOa51LK79dz60UhgS-119" value="" style="endArrow=none;html=1;rounded=0;exitX=0;exitY=1;exitDx=0;exitDy=0;entryX=1;entryY=0.5;entryDx=0;entryDy=0;" edge="1" parent="1" source="kLgQOa51LK79dz60UhgS-84" target="kLgQOa51LK79dz60UhgS-12">
          <mxGeometry width="50" height="50" relative="1" as="geometry">
            <mxPoint x="2358" y="638" as="sourcePoint" />
            <mxPoint x="2250" y="880" as="targetPoint" />
          </mxGeometry>
        </mxCell>
        <mxCell id="kLgQOa51LK79dz60UhgS-120" value="" style="endArrow=none;html=1;rounded=0;exitX=0;exitY=0.5;exitDx=0;exitDy=0;entryX=1;entryY=0.5;entryDx=0;entryDy=0;" edge="1" parent="1" source="kLgQOa51LK79dz60UhgS-79" target="kLgQOa51LK79dz60UhgS-12">
          <mxGeometry width="50" height="50" relative="1" as="geometry">
            <mxPoint x="2458" y="698" as="sourcePoint" />
            <mxPoint x="2300" y="879" as="targetPoint" />
          </mxGeometry>
        </mxCell>
        <mxCell id="kLgQOa51LK79dz60UhgS-121" value="" style="endArrow=none;html=1;rounded=0;exitX=0;exitY=0.5;exitDx=0;exitDy=0;entryX=1;entryY=0.5;entryDx=0;entryDy=0;" edge="1" parent="1" source="kLgQOa51LK79dz60UhgS-83" target="kLgQOa51LK79dz60UhgS-12">
          <mxGeometry width="50" height="50" relative="1" as="geometry">
            <mxPoint x="2500" y="760" as="sourcePoint" />
            <mxPoint x="2250" y="880" as="targetPoint" />
          </mxGeometry>
        </mxCell>
        <mxCell id="kLgQOa51LK79dz60UhgS-122" value="" style="endArrow=none;html=1;rounded=0;exitX=0;exitY=0.5;exitDx=0;exitDy=0;entryX=1;entryY=0.5;entryDx=0;entryDy=0;" edge="1" parent="1" source="kLgQOa51LK79dz60UhgS-80" target="kLgQOa51LK79dz60UhgS-12">
          <mxGeometry width="50" height="50" relative="1" as="geometry">
            <mxPoint x="2520" y="850" as="sourcePoint" />
            <mxPoint x="2250" y="880" as="targetPoint" />
          </mxGeometry>
        </mxCell>
        <mxCell id="kLgQOa51LK79dz60UhgS-123" value="" style="endArrow=none;html=1;rounded=0;exitX=0;exitY=0;exitDx=0;exitDy=0;entryX=1;entryY=0.5;entryDx=0;entryDy=0;" edge="1" parent="1" source="kLgQOa51LK79dz60UhgS-81" target="kLgQOa51LK79dz60UhgS-12">
          <mxGeometry width="50" height="50" relative="1" as="geometry">
            <mxPoint x="2500" y="950" as="sourcePoint" />
            <mxPoint x="2250" y="880" as="targetPoint" />
          </mxGeometry>
        </mxCell>
        <mxCell id="kLgQOa51LK79dz60UhgS-124" value="" style="endArrow=none;html=1;rounded=0;exitX=0;exitY=0;exitDx=0;exitDy=0;entryX=1;entryY=0.5;entryDx=0;entryDy=0;" edge="1" parent="1" source="kLgQOa51LK79dz60UhgS-82" target="kLgQOa51LK79dz60UhgS-12">
          <mxGeometry width="50" height="50" relative="1" as="geometry">
            <mxPoint x="2448" y="1002" as="sourcePoint" />
            <mxPoint x="2250" y="880" as="targetPoint" />
          </mxGeometry>
        </mxCell>
        <mxCell id="kLgQOa51LK79dz60UhgS-125" value="Own" style="rhombus;whiteSpace=wrap;html=1;fontSize=16;" vertex="1" parent="1">
          <mxGeometry x="1820" y="160" width="80" height="80" as="geometry" />
        </mxCell>
        <mxCell id="kLgQOa51LK79dz60UhgS-126" value="" style="endArrow=none;html=1;rounded=0;entryX=0.5;entryY=1;entryDx=0;entryDy=0;fontSize=16;exitX=0.5;exitY=0;exitDx=0;exitDy=0;" edge="1" parent="1" source="kLgQOa51LK79dz60UhgS-125" target="kLgQOa51LK79dz60UhgS-14">
          <mxGeometry width="50" height="50" relative="1" as="geometry">
            <mxPoint x="1920" y="180" as="sourcePoint" />
            <mxPoint x="1920" y="100" as="targetPoint" />
          </mxGeometry>
        </mxCell>
        <mxCell id="kLgQOa51LK79dz60UhgS-127" value="" style="endArrow=none;html=1;rounded=0;entryX=0.5;entryY=1;entryDx=0;entryDy=0;fontSize=16;exitX=0.75;exitY=0;exitDx=0;exitDy=0;" edge="1" parent="1" source="kLgQOa51LK79dz60UhgS-1" target="kLgQOa51LK79dz60UhgS-125">
          <mxGeometry width="50" height="50" relative="1" as="geometry">
            <mxPoint x="1790" y="340" as="sourcePoint" />
            <mxPoint x="1790" y="260" as="targetPoint" />
            <Array as="points">
              <mxPoint x="1770" y="320" />
              <mxPoint x="1860" y="320" />
            </Array>
          </mxGeometry>
        </mxCell>
        <mxCell id="kLgQOa51LK79dz60UhgS-128" value="" style="endArrow=none;html=1;rounded=0;entryX=0.5;entryY=1;entryDx=0;entryDy=0;fontSize=16;exitX=0.25;exitY=0;exitDx=0;exitDy=0;" edge="1" parent="1" source="kLgQOa51LK79dz60UhgS-1" target="kLgQOa51LK79dz60UhgS-4">
          <mxGeometry width="50" height="50" relative="1" as="geometry">
            <mxPoint x="1680" y="170" as="sourcePoint" />
            <mxPoint x="1680" y="90" as="targetPoint" />
            <Array as="points">
              <mxPoint x="1710" y="320" />
              <mxPoint x="1670" y="320" />
            </Array>
          </mxGeometry>
        </mxCell>
      </root>
    </mxGraphModel>
  </diagram>
</mxfile>
